<?xml version="1.0" standalone="no"?>
<!DOCTYPE svg PUBLIC "-//W3C//DTD SVG 20010904//EN"
 "http://www.w3.org/TR/2001/REC-SVG-20010904/DTD/svg10.dtd">
<svg version="1.0" xmlns="http://www.w3.org/2000/svg"
 width="77.504609pt" height="77.337402pt" viewBox="0 0 77.504609 77.337402"
 preserveAspectRatio="xMidYMid meet">
<metadata>
Created by potrace 1.12, written by Peter Selinger 2001-2015
</metadata>
<g transform="translate(-69.961896,152.471638) scale(0.100000,-0.100000)"
fill="#ff7070" stroke="none">
<path d="M1020 1519 c-140 -24 -262 -135 -303 -276 l-16 -52 132 -3 132 -3 3
-47 3 -48 -136 0 -135 0 6 -27 c4 -16 19 -56 35 -90 70 -157 240 -246 414
-216 132 23 223 90 282 211 36 71 38 82 38 166 -1 112 -26 183 -91 254 -97
109 -224 154 -364 131z m25 -384 l0 -230 -30 0 -30 0 -3 233 -2 233 32 -3 33
-3 0 -230z m83 3 l-3 -233 -30 0 -30 0 -3 233 -2 232 35 0 35 0 -2 -232z m83
160 c0 -13 0 -42 -1 -64 -1 -34 2 -42 19 -47 17 -4 21 -13 21 -50 0 -36 -4
-46 -19 -50 -17 -4 -20 -15 -23 -68 -3 -64 -3 -64 -33 -64 l-30 0 -3 170 c-1
93 0 175 2 182 3 7 19 13 36 13 24 0 30 -4 31 -22z"/>
</g>
</svg>
